# xmcd
#
# Track frame offsets:
#	150
#	12981
#	32056
#	49204
#	63589
#	82108
#	97739
#	113495
#	127798
#	143084
#	162582
#	178726
#
# Disc length: 2549 seconds
#
# Revision: 0
# Processed by: cddbd v1.5.2PL0 Copyright (c) Steve Scherf et al.
# Submitted via: dBpowerAMP V4.0
#
DISCID=9909f30c
DTITLE=Soha - d'ici et d'ailleurs
DYEAR=1900
DGENRE=
TTITLE0=Tourbillon
TTITLE1=c est bien mieux comme ça
TTITLE2=ma mélancolie
TTITLE3=on ne saura jamais
TTITLE4=mil pasos
TTITLE5=dream club
TTITLE6=vu de la-bas
TTITLE7=le café bleu
TTITLE8=mon rêve à moi
TTITLE9=drole d'idée
TTITLE10=rue de la croix nivert
TTITLE11=heureuse
EXTD=
EXTT0=
EXTT1=
EXTT2=
EXTT3=
EXTT4=
EXTT5=
EXTT6=
EXTT7=
EXTT8=
EXTT9=
EXTT10=
EXTT11=
PLAYORDER=
